<svg id="visual" viewBox="0 0 900 600" width="900" height="600" xmlns="http://www.w3.org/2000/svg" xmlns:xlink="http://www.w3.org/1999/xlink" version="1.1"><path d="M0 392L13.7 391.2C27.3 390.3 54.7 388.7 82 400.8C109.3 413 136.7 439 163.8 455.3C191 471.7 218 478.3 245.2 474.2C272.3 470 299.7 455 327 461.5C354.3 468 381.7 496 409 508.8C436.3 521.7 463.7 519.3 491 508.2C518.3 497 545.7 477 573 468.7C600.3 460.3 627.7 463.7 654.8 458.7C682 453.7 709 440.3 736.2 431.7C763.3 423 790.7 419 818 421.5C845.3 424 872.7 433 886.3 437.5L900 442L900 601L886.3 601C872.7 601 845.3 601 818 601C790.7 601 763.3 601 736.2 601C709 601 682 601 654.8 601C627.7 601 600.3 601 573 601C545.7 601 518.3 601 491 601C463.7 601 436.3 601 409 601C381.7 601 354.3 601 327 601C299.7 601 272.3 601 245.2 601C218 601 191 601 163.8 601C136.7 601 109.3 601 82 601C54.7 601 27.3 601 13.7 601L0 601Z" fill="#e5eeef" stroke-linecap="round" stroke-linejoin="miter"></path></svg>